# xmcd
# 
# Track frame offsets:
#     150
#     19840
#     35966
#     48550
#     65178
#     81601
#     98273
#     113036
#     130189
#     146057
# 
# Disc length: 2177
# 
# Revision: 2
# Processed by: cddbd v1.5.2PL0 Copyright (c) Steve Scherf et al.
# Submitted via: fre:ac v1.0.31
# 
DISCID=92087f0a
DTITLE=Stephen Stills - Stills-Illegal Stills-Thoroughfare Gap Disc 2
DYEAR=1978
DGENRE=Rock/Pop
TTITLE0=You Can't Dance Alone
TTITLE1=Thoroughfare Gap
TTITLE2=We Will Go On
TTITLE3=Beaucoup Yumbo
TTITLE4=What's The Game
TTITLE5=Midnight Rider
TTITLE6=Woman Lleva
TTITLE7=Lowdown
TTITLE8=Not Fade Away
TTITLE9=Can't Get No Booty
EXTD=2nd CD of Stephen Stills - Stills/Illegal Stills/Thoroughfare Gap
EXTT0=Stills
EXTT1=Stills
EXTT2=Stills
EXTT3=Stills/Vitale
EXTT4=Stills
EXTT5=Allman
EXTT6=Stills
EXTT7=Stills
EXTT8=Petty/Hardin
EXTT9=Stills/Kortchmar
PLAYORDER=
